<svg width="480" height="320" viewBox="0 0 480 320" fill="none" xmlns="http://www.w3.org/2000/svg">
<path d="M234.624 104.635C234.108 104.636 233.595 104.549 233.107 104.379L225.28 101.665C224.511 101.396 223.825 100.93 223.292 100.314C222.758 99.6972 222.396 98.9518 222.24 98.1516L220.672 90.0044C220.518 89.2033 220.578 88.3758 220.845 87.6051C221.113 86.8344 221.578 86.1477 222.195 85.614L228.461 80.1868C229.079 79.6531 229.826 79.2906 230.628 79.1357C231.43 78.9807 232.258 79.0386 233.03 79.3036L240.864 82.0236C241.635 82.2906 242.323 82.7558 242.858 83.3725C243.392 83.9892 243.755 84.7358 243.91 85.5372L245.472 93.678C245.625 94.4795 245.565 95.3069 245.299 96.0782C245.033 96.8495 244.569 97.5378 243.955 98.0748L237.683 103.502C236.833 104.236 235.747 104.638 234.624 104.635ZM227.2 96.9164L234.522 99.4764L240.384 94.4076L238.918 86.798L231.597 84.238L225.741 89.3132L227.2 96.9164Z" fill="#F5F5F5"/>
<path d="M326.042 80.9873C325.525 80.9882 325.012 80.9016 324.525 80.7313L320.557 79.3553C319.787 79.0874 319.1 78.6218 318.567 78.0051C318.033 77.3885 317.671 76.6424 317.517 75.8417L316.723 71.7201C316.57 70.9196 316.629 70.0928 316.896 69.3224C317.162 68.552 317.625 67.8649 318.24 67.3297L321.44 64.5777C322.057 64.0445 322.804 63.6828 323.604 63.5289C324.405 63.375 325.233 63.4343 326.003 63.7009L329.965 65.0769C330.736 65.3439 331.424 65.8091 331.959 66.4258C332.493 67.0426 332.856 67.7891 333.011 68.5905L333.805 72.7121C333.959 73.5132 333.899 74.3407 333.632 75.1114C333.364 75.8821 332.899 76.5688 332.282 77.1025L329.082 79.8545C328.235 80.5816 327.157 80.9833 326.042 80.9873ZM322.49 74.5873L325.946 75.7841L328.704 73.3905L328.013 69.8065L324.563 68.6097L321.798 71.0417L322.49 74.5873Z" fill="#F5F5F5"/>
<path d="M435.635 141.293C435.129 141.289 434.63 141.173 434.175 140.951C433.72 140.73 433.32 140.409 433.005 140.013L430.771 137.223C430.402 136.761 430.161 136.211 430.071 135.627C429.981 135.043 430.046 134.446 430.259 133.895L431.539 130.567C431.754 130.016 432.109 129.532 432.569 129.163C433.03 128.793 433.58 128.551 434.163 128.461L437.696 127.917C438.281 127.828 438.879 127.895 439.43 128.109C439.982 128.324 440.467 128.679 440.839 129.139L443.072 131.93C443.441 132.391 443.682 132.942 443.772 133.526C443.862 134.109 443.797 134.707 443.584 135.258L442.304 138.586C442.09 139.137 441.734 139.622 441.272 139.992C440.81 140.362 440.259 140.603 439.674 140.691L436.141 141.235C435.974 141.268 435.805 141.287 435.635 141.293ZM438.227 130.458H438.106L434.573 131.002C434.431 131.023 434.298 131.081 434.185 131.169C434.073 131.258 433.986 131.375 433.933 131.507L432.653 134.835C432.601 134.968 432.585 135.111 432.606 135.252C432.627 135.392 432.686 135.525 432.775 135.635L435.008 138.426C435.098 138.535 435.215 138.62 435.347 138.671C435.48 138.723 435.623 138.74 435.763 138.72L439.296 138.176C439.438 138.156 439.572 138.099 439.685 138.01C439.797 137.921 439.884 137.804 439.936 137.671L441.216 134.343C441.267 134.21 441.282 134.067 441.261 133.927C441.24 133.786 441.182 133.654 441.095 133.543L438.861 130.752C438.783 130.66 438.686 130.586 438.577 130.535C438.467 130.484 438.348 130.458 438.227 130.458Z" fill="#E0E0E0"/>
<path d="M36.9281 169.107C36.2789 169.106 35.6381 168.96 35.0524 168.68C34.4667 168.4 33.9509 167.993 33.5425 167.488L28.2945 160.935C27.8235 160.34 27.5166 159.633 27.4043 158.882C27.292 158.132 27.3783 157.366 27.6545 156.659L30.7201 148.832C30.9965 148.125 31.4534 147.504 32.0452 147.029C32.6371 146.553 33.3431 146.242 34.0929 146.125L42.4129 144.845C43.164 144.732 43.9315 144.818 44.6389 145.095C45.3464 145.371 45.9691 145.828 46.4449 146.419L51.6481 152.96C52.1197 153.556 52.427 154.264 52.5393 155.016C52.6516 155.767 52.565 156.535 52.2881 157.242L49.2801 165.075C49.0041 165.784 48.5467 166.408 47.9536 166.884C47.3605 167.361 46.6526 167.673 45.9009 167.789L37.5809 169.069C37.3649 169.101 37.1464 169.114 36.9281 169.107ZM31.8465 158.227L36.9665 164.627L45.0945 163.386L48.0769 155.706L42.9569 149.306L34.8289 150.554L31.8465 158.227Z" fill="#E0E0E0"/>
<path d="M58.1634 111.748H53.2162C52.6268 111.75 52.0471 111.597 51.5351 111.305C51.023 111.013 50.5964 110.592 50.2978 110.084L47.821 105.802C47.5287 105.288 47.375 104.707 47.375 104.116C47.375 103.525 47.5287 102.944 47.821 102.43L50.2978 98.148C50.5935 97.6358 51.019 97.2106 51.5313 96.9151C52.0436 96.6196 52.6248 96.4643 53.2162 96.4648H58.1634C58.7548 96.4643 59.336 96.6196 59.8483 96.9151C60.3606 97.2106 60.7861 97.6358 61.0818 98.148L63.5586 102.404C63.8509 102.918 64.0046 103.499 64.0046 104.09C64.0046 104.682 63.8509 105.263 63.5586 105.777L61.0818 110.084C60.7827 110.592 60.356 111.013 59.844 111.304C59.3321 111.596 58.7527 111.749 58.1634 111.748ZM53.2162 98.9992C53.074 98.9995 52.9342 99.0369 52.8108 99.1076C52.6873 99.1783 52.5844 99.2799 52.5122 99.4024L50.0418 103.684C49.9698 103.807 49.9319 103.948 49.9319 104.09C49.9319 104.233 49.9698 104.374 50.0418 104.497L52.5122 108.804C52.5841 108.927 52.6868 109.03 52.8102 109.102C52.9336 109.173 53.0735 109.212 53.2162 109.214H58.1634C58.3083 109.214 58.4509 109.177 58.5767 109.105C58.7025 109.033 58.8072 108.929 58.8802 108.804L61.3506 104.522C61.4226 104.399 61.4605 104.259 61.4605 104.116C61.4605 103.973 61.4226 103.833 61.3506 103.71L58.8802 99.4024C58.808 99.2799 58.7051 99.1783 58.5816 99.1076C58.4582 99.0369 58.3185 98.9995 58.1762 98.9992H53.2162Z" fill="#EBEBEB"/>
<path d="M142.579 63.3294L132.928 57.2558L121.082 37.2622L104.602 27.1758L101.415 30.6254L103.085 32.8782L108.288 39.8542L128.941 67.579L137.363 72.2126L142.579 63.3294Z" fill="#EBEBEB"/>
<path d="M130.451 77.7026L127.687 68.4994L97.3378 33.8242L93.293 36.2178L99.6994 54.4514L117.319 71.757L121.267 82.5602L130.451 77.7026Z" fill="#EBEBEB"/>
<path d="M146.893 65.0469C146.893 65.0469 181.165 83.8565 188.071 90.2053C194.976 96.5541 211.111 122.992 209.472 126.372C207.834 129.751 206.579 130.212 202.861 126.935C199.143 123.658 187.123 105.546 183.898 102.615C180.672 99.6837 140.519 76.1637 140.519 76.1637L146.893 65.0469Z" fill="#E0E0E0"/>
<path d="M123.654 73.1033C129.649 73.1033 134.509 68.2437 134.509 62.2489C134.509 56.2542 129.649 51.3945 123.654 51.3945C117.66 51.3945 112.8 56.2542 112.8 62.2489C112.8 68.2437 117.66 73.1033 123.654 73.1033Z" fill="#EBEBEB"/>
<path d="M120.96 72.7483C121.834 72.9128 122.72 73.0048 123.61 73.0235C124.651 73.0271 125.686 72.8739 126.682 72.5691C129.078 71.8679 131.155 70.3543 132.556 68.2883C133.958 66.2224 134.596 63.7329 134.362 61.2475C134.253 60.21 133.985 59.1955 133.568 58.2395C133.37 57.7486 133.139 57.2718 132.877 56.8123C132.596 56.3482 132.282 55.9054 131.936 55.4875C130.508 53.716 128.549 52.4493 126.348 51.8733C124.147 51.2974 121.818 51.4425 119.706 52.2875C119.205 52.4888 118.718 52.7218 118.246 52.9851C117.8 53.2615 117.372 53.5673 116.966 53.9003C116.156 54.5382 115.45 55.2982 114.874 56.1531C113.786 57.7294 113.138 59.5676 112.998 61.4779C112.895 62.9953 113.112 64.5177 113.636 65.9457C114.159 67.3737 114.978 68.6754 116.038 69.7659C116.759 70.5259 117.589 71.1731 118.502 71.6859C119.29 72.1007 120.11 72.4517 120.954 72.7355C120.896 72.7428 120.838 72.7428 120.781 72.7355L120.282 72.5947C120.01 72.5256 119.744 72.4336 119.488 72.3195C119.129 72.1834 118.78 72.0208 118.445 71.8331C117.499 71.3448 116.636 70.7121 115.885 69.9579C114.783 68.8586 113.927 67.5373 113.376 66.0817C112.824 64.6262 112.588 63.0699 112.685 61.5163C112.824 59.5514 113.487 57.6596 114.605 56.0379C115.199 55.1562 115.924 54.3705 116.755 53.7083C117.607 53.0001 118.569 52.4359 119.603 52.0379C121.778 51.1656 124.175 51.0131 126.443 51.6029C128.711 52.1926 130.73 53.4934 132.205 55.3147C132.556 55.7488 132.876 56.2064 133.165 56.6843C133.436 57.1596 133.674 57.6537 133.875 58.1627C134.282 59.1414 134.533 60.1781 134.618 61.2347C134.794 63.0655 134.503 64.911 133.772 66.5988C133.041 68.2866 131.894 69.7615 130.438 70.8859C129.332 71.75 128.066 72.3892 126.714 72.7675C125.7 73.0641 124.646 73.2002 123.59 73.1707C123.205 73.1722 122.82 73.1444 122.438 73.0875C122.156 73.0677 121.876 73.0249 121.6 72.9595L121.094 72.8379C121.046 72.8144 121.001 72.7842 120.96 72.7483Z" fill="#E0E0E0"/>
<path d="M122.119 68.1803C120.944 67.8765 119.886 67.2311 119.079 66.3259C118.271 65.4206 117.75 64.2962 117.582 63.0948C117.414 61.8935 117.606 60.6692 118.134 59.577C118.661 58.4847 119.501 57.5736 120.547 56.9589C121.593 56.3441 122.797 56.0534 124.009 56.1235C125.22 56.1936 126.383 56.6214 127.35 57.3527C128.318 58.0841 129.047 59.086 129.446 60.2319C129.844 61.3778 129.893 62.616 129.587 63.7899C129.178 65.3618 128.162 66.707 126.761 67.5301C125.361 68.3533 123.691 68.5871 122.119 68.1803Z" fill="#E0E0E0"/>
<path d="M122.118 68.1825C122.118 68.1377 122.65 68.3105 123.61 68.3105C124.759 68.3 125.881 67.9653 126.848 67.3448C127.815 66.7243 128.587 65.8433 129.075 64.8033C129.523 63.8314 129.704 62.7579 129.6 61.6929C129.484 60.519 129.023 59.4057 128.275 58.4929C127.477 57.5068 126.384 56.8025 125.156 56.4834C123.928 56.1644 122.63 56.2473 121.453 56.7201C120.894 56.9283 120.373 57.2266 119.91 57.6033C119.456 57.9661 119.06 58.398 118.739 58.8833C118.131 59.7626 117.767 60.7872 117.683 61.8529C117.613 62.7832 117.762 63.7171 118.118 64.5793C118.635 65.8444 119.561 66.8993 120.749 67.5745C121.193 67.8143 121.65 68.028 122.118 68.2145C121.616 68.1263 121.132 67.9554 120.685 67.7089C119.437 67.0558 118.453 65.9907 117.901 64.6945C117.514 63.7996 117.345 62.8257 117.408 61.8529C117.481 60.7324 117.852 59.6519 118.483 58.7233C118.811 58.2129 119.215 57.7553 119.68 57.3665C120.167 56.9637 120.716 56.6417 121.306 56.4129C122.547 55.9103 123.918 55.8206 125.215 56.1572C126.511 56.4937 127.665 57.2386 128.506 58.2817C129.302 59.2429 129.794 60.4191 129.92 61.6609C130.02 62.7793 129.819 63.9041 129.338 64.9185C128.918 65.797 128.298 66.5643 127.526 67.1585C126.411 68.0219 125.032 68.474 123.622 68.4385C123.11 68.438 122.602 68.3515 122.118 68.1825Z" fill="#E0E0E0"/>
<path d="M140.208 62.9669L135.773 70.6859C134.474 72.9477 135.254 75.8347 137.516 77.1343L137.932 77.3734C140.194 78.6729 143.081 77.8929 144.38 75.6311L148.815 67.9121C150.115 65.6503 149.335 62.7632 147.073 61.4637L146.657 61.2246C144.395 59.925 141.508 60.7051 140.208 62.9669Z" fill="#EBEBEB"/>
<path d="M135.77 70.6873C135.505 71.2572 135.326 71.8632 135.239 72.4857C135.172 73.2171 135.271 73.9541 135.527 74.6425C135.685 75.0663 135.901 75.4667 136.167 75.8329C136.479 76.2348 136.855 76.5829 137.28 76.8633C137.746 77.1776 138.249 77.4334 138.778 77.6249C139.702 77.9378 140.701 77.9469 141.63 77.651C142.56 77.355 143.37 76.7695 143.943 75.9801C145.415 73.5289 146.97 70.7193 148.647 67.8329C149.03 67.1486 149.231 66.3773 149.231 65.5929C149.231 64.8085 149.03 64.0372 148.647 63.3529C148.307 62.6957 147.81 62.1329 147.2 61.7145C146.608 61.2987 145.941 61.003 145.235 60.8441C144.582 60.7114 143.907 60.7229 143.258 60.8776C142.609 61.0324 142.002 61.3267 141.479 61.7401C140.474 62.5017 140.032 63.6601 139.443 64.5945L136.807 69.0745L136.077 70.2841C135.999 70.4297 135.907 70.5669 135.802 70.6937C135.865 70.5402 135.938 70.3906 136.019 70.2457C136.192 69.9385 136.416 69.5225 136.698 69.0105C137.338 67.9097 138.176 66.3737 139.258 64.4857L140.103 62.9881C140.414 62.4288 140.829 61.9336 141.325 61.5289C141.874 61.0879 142.511 60.7714 143.194 60.6012C143.877 60.431 144.589 60.4112 145.28 60.5433C146.019 60.7047 146.719 61.0091 147.341 61.4393C148.022 61.8656 148.584 62.458 148.973 63.1609C149.392 63.8962 149.612 64.7277 149.612 65.5737C149.612 66.4198 149.392 67.2513 148.973 67.9865C147.29 70.8857 145.773 73.6505 144.231 76.1529C143.806 76.7212 143.264 77.191 142.641 77.5301C142.018 77.8692 141.329 78.0697 140.621 78.1177C139.981 78.1545 139.34 78.0676 138.733 77.8617C138.187 77.6524 137.67 77.3773 137.191 77.0425C136.747 76.7439 136.356 76.3741 136.032 75.9481C135.762 75.5524 135.547 75.1218 135.392 74.6681C135.178 74.088 135.082 73.4707 135.111 72.8528C135.139 72.235 135.292 71.6292 135.559 71.0713C135.618 70.9376 135.689 70.8092 135.77 70.6873Z" fill="#E0E0E0"/>
<path d="M122.541 88.0286C122.541 88.0286 135.527 124.905 140.672 132.752C145.818 140.598 169.274 160.809 172.871 159.747C176.467 158.685 177.101 157.513 174.503 153.347C171.904 149.181 155.943 134.345 153.587 130.678C151.232 127.011 134.509 83.5742 134.509 83.5742L122.541 88.0286Z" fill="#E0E0E0"/>
<path d="M129.917 77.9777L121.579 81.0983C119.136 82.0126 117.897 84.7344 118.811 87.1774L118.98 87.627C119.894 90.07 122.616 91.3092 125.059 90.3948L133.396 87.2742C135.839 86.3598 137.079 83.6381 136.164 81.1951L135.996 80.7455C135.082 78.3025 132.36 77.0633 129.917 77.9777Z" fill="#EBEBEB"/>
<path d="M129.92 77.9732C130.067 77.8968 130.221 77.8367 130.381 77.794C130.841 77.663 131.318 77.6026 131.795 77.6148C132.553 77.64 133.294 77.844 133.959 78.21C134.371 78.4467 134.75 78.7372 135.085 79.074C135.451 79.464 135.753 79.9089 135.981 80.3924C136.234 80.9195 136.419 81.4765 136.531 82.05C136.644 82.687 136.626 83.34 136.48 83.97C136.315 84.6635 136 85.3125 135.558 85.8718C135.115 86.4311 134.557 86.8873 133.92 87.2084C131.207 88.3028 128.231 89.3716 125.095 90.562C124.301 90.8546 123.445 90.9376 122.61 90.8031C121.775 90.6686 120.988 90.321 120.327 89.794C119.696 89.2836 119.203 88.6236 118.893 87.874C118.565 87.1839 118.378 86.4355 118.343 85.6724C118.319 84.9634 118.451 84.2578 118.73 83.6054C119.008 82.953 119.427 82.3696 119.955 81.8964C120.435 81.4735 120.991 81.1456 121.594 80.93L123.207 80.3348L128.083 78.5684L129.415 78.1012C129.568 78.0399 129.726 77.9927 129.888 77.9604C129.747 78.0458 129.597 78.1145 129.44 78.1652L128.16 78.69L123.322 80.5588C122.317 80.9876 121.088 81.2372 120.173 82.1012C119.68 82.5517 119.291 83.1038 119.033 83.7192C118.774 84.3347 118.652 84.9989 118.675 85.666C118.722 86.3879 118.906 87.094 119.219 87.746C119.512 88.4383 119.974 89.0457 120.563 89.5124C121.181 90.0038 121.915 90.3274 122.694 90.4519C123.473 90.5764 124.272 90.4975 125.011 90.2228C128.128 89.0388 131.155 87.9572 133.818 86.9076C134.686 86.4674 135.393 85.7631 135.835 84.8959C136.278 84.0288 136.434 83.0436 136.282 82.082C136.176 81.5272 136.002 80.9877 135.763 80.4756C135.556 80.0072 135.275 79.575 134.931 79.1956C134.618 78.8664 134.26 78.5821 133.869 78.3508C133.234 77.98 132.522 77.761 131.789 77.7108C131.156 77.7025 130.526 77.791 129.92 77.9732Z" fill="#E0E0E0"/>
<path d="M457.446 290.221C457.446 290.311 359.885 290.387 239.565 290.387C119.245 290.387 21.6641 290.311 21.6641 290.221C21.6641 290.131 119.206 290.055 239.565 290.055C359.923 290.055 457.446 290.131 457.446 290.221Z" fill="#263238"/>
<path d="M55.6799 217.007C55.8527 216.469 75.7951 151.279 75.7951 151.279L75.2959 143.183L80.5119 134.594L86.9887 136.738L86.1055 146.338L81.4975 153.339L61.4399 218.882L55.6799 217.007Z" fill="#E0E0E0"/>
<path d="M55.6799 217.006L56.0639 217.114L57.1711 217.46L61.4399 218.798L61.3695 218.836C64.6143 208.206 72.1151 183.604 81.3567 153.313L85.9583 146.318V146.388C86.2399 143.322 86.5407 140.065 86.8415 136.788L86.9567 136.961L86.4191 136.788L80.4799 134.823L80.6719 134.753L75.4559 143.342V143.246C75.6223 146.006 75.7866 148.705 75.9487 151.342V151.399C70.1183 170.337 65.0687 186.74 61.4783 198.414C59.6735 204.257 58.2271 208.91 57.2351 212.116C56.7423 213.716 56.3519 214.951 56.0895 215.796L55.7887 216.75L55.6799 217.076C55.7017 216.97 55.7294 216.865 55.7631 216.762C55.8271 216.538 55.9167 216.225 56.0383 215.822C56.2943 214.977 56.6783 213.748 57.1391 212.161C58.1055 208.961 59.5135 204.302 61.2799 198.465C64.8511 186.753 69.8559 170.305 75.6415 151.303V151.361C75.4751 148.724 75.3066 146.025 75.1359 143.265V143.214V143.169L80.3519 134.58L80.4159 134.465L80.5439 134.51L86.4895 136.468L87.0207 136.647L87.1487 136.686V136.82C86.8479 140.116 86.5471 143.374 86.2591 146.42V146.465V146.497L81.6575 153.498V153.454C72.3199 183.681 64.7551 208.25 61.4783 218.881V218.938H61.4207L57.1455 217.524L56.0639 217.159L55.6799 217.006Z" fill="#263238"/>
<path d="M50.8735 220.16L41.9135 232.269L29.3887 277.709C29.3887 277.709 27.5903 286.976 37.8239 289.606C49.3439 292.563 51.9679 283.757 51.9679 283.757L64.1279 239.385L63.9999 224L67.0015 220.614C67.1372 220.456 67.2324 220.268 67.2789 220.065C67.3253 219.862 67.3216 219.651 67.268 219.45C67.2144 219.249 67.1126 219.064 66.9713 218.911C66.8301 218.758 66.6538 218.642 66.4575 218.573L52.0703 213.824C51.8704 213.761 51.6581 213.749 51.4522 213.788C51.2463 213.826 51.0531 213.915 50.8894 214.046C50.7258 214.177 50.5967 214.345 50.5136 214.538C50.4305 214.73 50.3959 214.94 50.4127 215.149L50.8735 220.16Z" fill="#353CF7"/>
<path d="M64.0766 224.531C64.0446 224.62 61.0302 223.743 57.3438 222.572C53.6574 221.401 50.6814 220.377 50.7134 220.288C50.7454 220.198 53.7534 221.081 57.4462 222.252C61.139 223.423 64.1022 224.441 64.0766 224.531Z" fill="#263238"/>
<path d="M64.1535 239.39C63.8502 239.371 63.5498 239.32 63.2575 239.237C62.6814 239.115 61.8623 238.917 60.8447 238.661C58.8095 238.155 56.0191 237.381 52.9791 236.408C49.9391 235.435 47.2191 234.45 45.2543 233.688C44.2815 233.304 43.4943 232.984 42.9567 232.754C42.6713 232.651 42.3969 232.52 42.1375 232.363C42.4357 232.424 42.7272 232.514 43.0079 232.632L45.3375 233.464C47.3087 234.168 50.0351 235.122 53.0751 236.088C56.1151 237.054 58.8927 237.867 60.9023 238.437L63.2895 239.109C63.5855 239.176 63.8747 239.27 64.1535 239.39Z" fill="#263238"/>
<g opacity="0.3">
<path d="M47.3091 237.085L46.9958 236.994C45.876 236.667 44.7035 237.31 44.3769 238.43L33.2862 276.455C32.9596 277.575 33.6026 278.747 34.7224 279.074L35.0357 279.165C36.1555 279.492 37.328 278.849 37.6546 277.729L48.7453 239.704C49.0719 238.584 48.4289 237.412 47.3091 237.085Z" fill="black"/>
</g>
<g opacity="0.3">
<path d="M53.7298 239.171L53.4164 239.08C52.2967 238.753 51.1242 239.396 50.7976 240.516L39.7069 278.541C39.3803 279.661 40.0233 280.833 41.143 281.16L41.4564 281.251C42.5761 281.578 43.7487 280.935 44.0753 279.815L55.1659 241.79C55.4925 240.67 54.8496 239.498 53.7298 239.171Z" fill="black"/>
</g>
<g opacity="0.3">
<path d="M59.5215 241.087L59.2085 240.994C58.09 240.663 56.9149 241.301 56.5839 242.42L45.3408 280.4C45.0097 281.519 45.6479 282.694 46.7664 283.025L47.0794 283.117C48.1978 283.448 49.3729 282.81 49.704 281.692L60.9471 243.711C61.2782 242.593 60.6399 241.418 59.5215 241.087Z" fill="black"/>
</g>
<path d="M81.4527 153.345C80.474 153.181 79.5167 152.909 78.5983 152.533C77.6448 152.264 76.7255 151.886 75.8591 151.406C76.8348 151.575 77.7896 151.847 78.7071 152.219C79.6624 152.488 80.5837 152.866 81.4527 153.345Z" fill="#263238"/>
<path d="M87.0015 136.739C86.9536 137.044 86.8786 137.344 86.7775 137.635C86.5919 138.275 86.3487 139.082 86.0479 140.08L83.4879 148.4L83.4367 148.56L83.2767 148.509L80.3263 147.478L77.2927 146.416L77.1455 146.365L77.1903 146.218C78.1119 142.928 78.9247 140.042 79.5263 137.898C79.8207 136.906 80.0575 136.086 80.2431 135.472C80.3183 135.175 80.4168 134.884 80.5375 134.602C80.5025 134.907 80.4404 135.209 80.3519 135.504L79.7119 137.955C79.1423 140.086 78.3743 142.979 77.4911 146.275L77.3887 146.077L80.4287 147.139L83.3727 148.17L83.1615 148.278L85.8495 140.016C86.1823 139.024 86.4895 138.218 86.6687 137.603C86.7551 137.306 86.8664 137.017 87.0015 136.739Z" fill="#263238"/>
<path d="M275.776 71.6303C275.26 71.6312 274.747 71.5446 274.259 71.3743L266.419 68.6607C265.65 68.3917 264.964 67.9257 264.431 67.3093C263.897 66.6928 263.535 65.9473 263.379 65.1471L261.811 56.9999C261.657 56.1988 261.717 55.3713 261.984 54.6006C262.252 53.8299 262.717 53.1432 263.334 52.6095L269.606 47.1823C270.224 46.6497 270.97 46.2883 271.771 46.1345C272.572 45.9806 273.399 46.0396 274.17 46.3055L282.003 49.0191C282.774 49.2872 283.461 49.7528 283.995 50.3693C284.53 50.9859 284.893 51.7318 285.05 52.5327L286.618 60.6799C286.768 61.481 286.707 62.3076 286.44 63.0776C286.172 63.8477 285.709 64.5346 285.094 65.0703L278.822 70.4975C277.976 71.2286 276.894 71.6306 275.776 71.6303ZM268.352 63.9119L275.68 66.4719L281.536 61.4031L280.07 53.7615L272.749 51.2015L266.88 56.3215L268.352 63.9119Z" fill="#E0E0E0"/>
<path d="M268.352 63.9108C268.298 63.7452 268.256 63.5763 268.224 63.4052L267.904 61.9012C267.629 60.5508 267.264 58.65 266.771 56.3268C266.766 56.3049 266.767 56.2822 266.774 56.2609C266.781 56.2395 266.793 56.2203 266.809 56.2052L272.646 51.0852C272.67 51.0729 272.696 51.0664 272.723 51.0664C272.75 51.0664 272.776 51.0729 272.8 51.0852L280.121 53.6452L280.237 53.7732V53.882V54.01L280.288 54.2596L280.384 54.7588C280.448 55.0852 280.505 55.3988 280.569 55.7444C280.697 56.3844 280.819 57.0244 280.941 57.6644C281.184 58.9444 281.421 60.1732 281.645 61.3572C281.65 61.3841 281.648 61.4119 281.639 61.4378C281.63 61.4637 281.614 61.4867 281.593 61.5044L275.757 66.5604C275.738 66.5711 275.717 66.5767 275.696 66.5767C275.674 66.5767 275.654 66.5711 275.635 66.5604L270.278 64.6404L268.838 64.1028C268.672 64.0485 268.509 63.9822 268.352 63.9044C268.534 63.9426 268.714 63.9939 268.889 64.058L270.368 64.5316L275.718 66.3236H275.597L281.433 61.2036L281.382 61.3572C281.152 60.1668 280.909 58.938 280.665 57.6644C280.544 57.0244 280.416 56.3844 280.288 55.7444C280.224 55.418 280.166 55.1044 280.102 54.7588L280.006 54.2596L279.955 54.01V53.882V53.818V53.7732C279.955 53.7732 280.16 54.01 280.057 53.8948L272.742 51.3348H272.896L267.014 56.3844L267.059 56.2628C267.475 58.5796 267.821 60.4676 268.064 61.818C268.173 62.458 268.262 62.9636 268.326 63.3476C268.352 63.5341 268.361 63.7227 268.352 63.9108Z" fill="#263238"/>
<path d="M275.776 71.6279C275.776 71.6279 276.051 71.6279 276.569 71.5255C277.317 71.3832 278.018 71.0602 278.611 70.5847L284.979 65.0103C285.676 64.4087 286.174 63.6097 286.406 62.7191C286.532 62.2499 286.583 61.7641 286.56 61.2791C286.503 60.7733 286.418 60.2711 286.304 59.7751C285.901 57.7079 285.472 55.5063 285.024 53.1895C284.945 52.6099 284.787 52.0437 284.557 51.5063C284.308 50.964 283.953 50.4769 283.514 50.0736C283.074 49.6702 282.558 49.3588 281.997 49.1575L280.192 48.5175L276.486 47.2375L274.566 46.5975C273.958 46.3415 273.306 46.2046 272.646 46.1943C271.983 46.1935 271.328 46.3376 270.726 46.6166C270.142 46.9099 269.606 47.2921 269.139 47.7495L266.176 50.3095L263.315 52.7863C262.444 53.5843 261.92 54.6916 261.856 55.8711C261.847 56.4423 261.911 57.0123 262.048 57.567C262.157 58.1366 262.259 58.6935 262.368 59.2439C262.573 60.3447 262.777 61.4071 262.969 62.4439C263.161 63.4807 263.347 64.479 263.545 65.4135C263.784 66.2995 264.284 67.0933 264.979 67.6919C265.302 67.9678 265.662 68.1982 266.048 68.3766C266.425 68.5431 266.829 68.6647 267.2 68.8055L269.344 69.5607L272.774 70.7766C273.484 71.063 274.211 71.3046 274.95 71.4999C275.462 71.5959 275.744 71.5895 275.744 71.6023C275.476 71.6347 275.205 71.6347 274.937 71.6023C274.189 71.4299 273.453 71.2054 272.736 70.9303L269.318 69.7591L267.168 69.0295C266.784 68.8951 266.393 68.7799 265.99 68.607C265.582 68.4228 265.201 68.1838 264.857 67.8967C264.119 67.2728 263.586 66.4409 263.328 65.5095C263.11 64.5367 262.937 63.5511 262.733 62.5207C262.528 61.4903 262.323 60.4215 262.093 59.3207C261.982 58.7788 261.873 58.222 261.766 57.6503C261.622 57.0728 261.553 56.479 261.561 55.8839C261.628 54.6201 262.186 53.4326 263.117 52.5751L265.971 50.0918L268.934 47.5318C269.19 47.3142 269.427 47.0966 269.702 46.8918C269.982 46.6834 270.283 46.5033 270.598 46.3543C271.236 46.0583 271.931 45.9054 272.633 45.9063C273.33 45.9172 274.019 46.0605 274.662 46.3287L276.582 46.9687L280.288 48.2487L282.093 48.8887C282.702 49.1061 283.261 49.4434 283.737 49.8807C284.205 50.3094 284.581 50.8273 284.845 51.4039C285.086 51.9656 285.25 52.5577 285.331 53.1639C285.758 55.4892 286.174 57.6865 286.579 59.7559C286.694 60.2643 286.778 60.7794 286.829 61.2983C286.866 62.035 286.732 62.7704 286.439 63.4474C286.146 64.1243 285.701 64.7248 285.139 65.2022L278.701 70.6999C278.081 71.1733 277.353 71.4856 276.582 71.6087C276.315 71.6481 276.044 71.6546 275.776 71.6279Z" fill="#263238"/>
<path d="M221.229 58.3048C220.721 58.3035 220.221 58.1878 219.764 57.9662C219.307 57.7445 218.907 57.4228 218.592 57.0248L216.358 54.2408C215.99 53.7779 215.748 53.2267 215.658 52.6417C215.569 52.0568 215.633 51.4585 215.846 50.9064L217.126 47.5784C217.342 47.0276 217.698 46.5431 218.16 46.1736C218.621 45.804 219.172 45.5623 219.757 45.4728L223.283 44.9288C223.868 44.8402 224.466 44.9065 225.017 45.121C225.569 45.3354 226.054 45.6906 226.426 46.1512L228.659 48.9416C229.028 49.4031 229.269 49.9533 229.359 50.5373C229.449 51.1212 229.384 51.7185 229.171 52.2696L227.891 55.604C227.679 56.1551 227.326 56.6412 226.868 57.0139C226.41 57.3867 225.863 57.6331 225.28 57.7288L221.747 58.2664C221.576 58.2923 221.402 58.3051 221.229 58.3048ZM223.789 47.4696H223.667L220.16 48.0008C220.018 48.0218 219.885 48.0796 219.773 48.1683C219.66 48.257 219.573 48.3735 219.52 48.5064L218.24 51.8408C218.189 51.9732 218.174 52.1166 218.195 52.2568C218.216 52.3971 218.274 52.5294 218.362 52.6408L220.595 55.4248C220.685 55.5351 220.801 55.6203 220.934 55.6719C221.066 55.7235 221.21 55.7398 221.35 55.7192L224.883 55.1752C225.025 55.1548 225.159 55.0972 225.271 55.0085C225.384 54.9197 225.47 54.8028 225.523 54.6696L226.803 51.3416C226.855 51.2093 226.871 51.0657 226.85 50.9252C226.829 50.7847 226.77 50.6524 226.682 50.5416L224.448 47.7576C224.37 47.666 224.273 47.5927 224.163 47.5429C224.054 47.4932 223.935 47.4681 223.814 47.4696H223.789Z" fill="#E0E0E0"/>
<path d="M223.814 47.4702C223.904 47.4422 224 47.4422 224.089 47.4702C224.2 47.5004 224.303 47.5551 224.39 47.6302C224.499 47.7376 224.601 47.8508 224.697 47.9694L226.515 50.1518L226.809 50.5166C226.92 50.6673 226.983 50.8481 226.989 51.035C226.985 51.2193 226.941 51.4005 226.861 51.5662C226.803 51.7262 226.739 51.8862 226.681 52.0526C226.425 52.6926 226.157 53.4158 225.875 54.1582C225.805 54.3438 225.734 54.5294 225.657 54.7214C225.573 54.9526 225.404 55.1428 225.184 55.2526C224.978 55.3294 224.763 55.3789 224.544 55.3998L223.904 55.5022C223.04 55.6302 222.195 55.7774 221.235 55.899C221.097 55.8994 220.961 55.8705 220.835 55.8142C220.709 55.758 220.597 55.6756 220.505 55.5726L220.083 55.0414L219.257 54.0174L218.47 53.019L218.272 52.7758C218.196 52.6861 218.135 52.5845 218.093 52.475C218.006 52.2484 218.006 51.9977 218.093 51.771L218.925 49.6782L219.302 48.731C219.357 48.5698 219.43 48.4152 219.52 48.2702C219.622 48.126 219.765 48.0148 219.929 47.9502C221.158 47.7262 222.093 47.6366 222.765 47.547C223.108 47.4798 223.458 47.4497 223.808 47.4574C223.723 47.4889 223.635 47.5104 223.545 47.5214L222.79 47.675C222.15 47.803 221.139 47.9438 220.019 48.1678C219.899 48.2206 219.795 48.3046 219.718 48.411C219.646 48.5442 219.587 48.6834 219.539 48.827L219.181 49.7806L218.374 51.8862C218.316 52.041 218.316 52.2115 218.374 52.3662C218.463 52.531 218.573 52.6838 218.701 52.8206L219.52 53.8254L220.345 54.8494L220.761 55.3678C220.822 55.4349 220.896 55.4885 220.979 55.5249C221.062 55.5613 221.151 55.5797 221.241 55.579L223.859 55.1886L224.499 55.0926C224.693 55.0805 224.885 55.0418 225.069 54.9774C225.22 54.9054 225.337 54.7767 225.395 54.619C225.465 54.427 225.542 54.2414 225.613 54.0558C225.907 53.3262 226.182 52.6222 226.445 51.963C226.517 51.8052 226.581 51.6452 226.637 51.483C226.706 51.35 226.748 51.204 226.758 51.0542C226.752 50.9178 226.71 50.7854 226.637 50.6702L226.355 50.3118L224.621 48.0654C224.544 47.9085 224.431 47.7724 224.29 47.6688C224.15 47.5652 223.987 47.497 223.814 47.4702Z" fill="#263238"/>
<path d="M221.229 58.3053C221.368 58.2738 221.509 58.2524 221.651 58.2413L222.873 58.0301L224.793 57.7037C225.192 57.6602 225.584 57.5656 225.958 57.4221C226.369 57.2528 226.739 57 227.046 56.6797C227.399 56.3292 227.67 55.9053 227.84 55.4381C228.025 54.9517 228.224 54.4397 228.422 53.9085C228.774 52.8397 229.491 51.7453 229.229 50.5229C229.115 49.9031 228.832 49.3269 228.41 48.8589L227.13 47.2717L226.49 46.4525C226.286 46.1772 226.044 45.9317 225.773 45.7229C225.219 45.3075 224.545 45.0829 223.853 45.0829C223.496 45.0961 223.141 45.1367 222.79 45.2045L221.721 45.3645L219.641 45.6909C219.003 45.8294 218.422 46.16 217.977 46.6381C217.763 46.8674 217.582 47.126 217.44 47.4061C217.305 47.6813 217.197 48.0013 217.081 48.2893L216.397 50.0237C216.158 50.5466 215.97 51.0909 215.833 51.6493C215.758 52.1535 215.797 52.6682 215.949 53.1548C216.101 53.6415 216.361 54.0873 216.71 54.4589L218.317 56.5069C218.56 56.8013 218.758 57.0957 218.989 57.3197C219.197 57.5247 219.432 57.7011 219.686 57.8445C220.176 58.1044 220.714 58.2612 221.267 58.3053C221.267 58.3053 221.229 58.3053 221.152 58.3053C221.075 58.3053 220.973 58.3053 220.832 58.3053C220.412 58.2673 220.003 58.1478 219.629 57.9533C219.358 57.8098 219.107 57.6336 218.88 57.4285C218.629 57.1703 218.392 56.899 218.17 56.6157L216.525 54.5997C216.148 54.2058 215.866 53.7315 215.7 53.2126C215.534 52.6938 215.487 52.1439 215.565 51.6045C215.693 51.022 215.88 50.4538 216.121 49.9085L216.793 48.1741C216.915 47.8733 217.011 47.5789 217.158 47.2653C217.311 46.9555 217.507 46.6689 217.741 46.4141C218.219 45.8996 218.837 45.5368 219.52 45.3709C220.224 45.2493 220.909 45.1533 221.619 45.0381L222.688 44.8781C223.055 44.8046 223.427 44.7618 223.801 44.7501C224.564 44.7432 225.308 44.9859 225.92 45.4413C226.214 45.6659 226.475 45.9309 226.694 46.2285L227.334 47.0477C227.769 47.5853 228.192 48.1229 228.614 48.6413C229.071 49.1507 229.375 49.7784 229.491 50.4525C229.605 51.0991 229.534 51.7645 229.286 52.3725C229.069 52.9293 228.851 53.4733 228.646 54.0045C228.442 54.5357 228.237 55.0349 228.045 55.5277C227.865 56.0091 227.584 56.4458 227.219 56.8077C226.57 57.4319 225.718 57.8021 224.819 57.8509L222.899 58.1197C222.368 58.1901 221.952 58.2477 221.67 58.2669C221.525 58.2972 221.377 58.3101 221.229 58.3053Z" fill="#263238"/>
<path d="M283.577 49.9531C283.127 50.7278 282.571 51.4364 281.926 52.0587C281.359 52.7593 280.678 53.3588 279.91 53.8315C280.45 53.1239 281.042 52.4585 281.683 51.8411C282.241 51.1422 282.877 50.5088 283.577 49.9531Z" fill="#263238"/>
<path d="M271.578 46.2734C271.996 47.0261 272.284 47.844 272.429 48.6926C272.688 49.5201 272.803 50.3861 272.768 51.2526C272.481 50.45 272.267 49.6232 272.128 48.7822C271.868 47.9646 271.684 47.1248 271.578 46.2734Z" fill="#263238"/>
<path d="M266.803 56.1745C265.966 56.0096 265.143 55.7741 264.346 55.4705C263.515 55.2666 262.702 54.9969 261.914 54.6641C263.634 54.803 265.304 55.3186 266.803 56.1745Z" fill="#263238"/>
<path d="M265.44 67.2791C265.775 66.6099 266.206 65.9932 266.72 65.4487C267.16 64.8391 267.686 64.2959 268.282 63.8359C267.951 64.5077 267.519 65.125 267.002 65.6663C266.561 66.276 266.035 66.8192 265.44 67.2791Z" fill="#263238"/>
<path d="M276.218 70.7783C275.96 70.1195 275.808 69.4238 275.77 68.7175C275.616 68.0246 275.574 67.3114 275.648 66.6055C275.903 67.2672 276.054 67.9646 276.096 68.6727C276.246 69.3639 276.287 70.0744 276.218 70.7783Z" fill="#263238"/>
<path d="M285.325 62.5799C284.669 62.5033 284.031 62.3173 283.437 62.0295C282.801 61.8475 282.201 61.5574 281.664 61.1719C282.954 61.4337 284.192 61.9096 285.325 62.5799Z" fill="#263238"/>
<path d="M412.378 111.657C416.71 106.435 421.043 101.161 424.422 95.273C427.802 89.385 430.182 82.8058 430.355 76.0218C430.355 74.9914 429.939 67.8554 428.947 67.5674C428.243 67.3626 427.757 73.6666 427.181 74.121C421.651 78.4474 418.061 84.8666 415.994 91.5738C414.048 98.1135 412.835 104.849 412.378 111.657Z" fill="#263238"/>
<path d="M355.936 151.35C357.664 146.87 366.176 124.47 366.131 124.47C366.086 124.47 351.469 116.841 356.531 101.302C358.963 93.7944 365.229 78.748 371.053 65.1928C374.076 58.1699 379.632 52.5422 386.615 49.4293C393.599 46.3164 401.498 45.9464 408.742 48.3928L410.234 48.8984C426.016 55.2984 429.434 72.2392 422.605 87.836L391.245 160.476L363.763 151.983L355.936 151.35Z" fill="#FFBF9D"/>
<path d="M366.138 124.484C366.138 124.484 375.693 128.324 388.288 125.329C388.288 125.329 379.571 135.179 364.608 128.574L366.138 124.484Z" fill="#FF9A6C"/>
<path d="M371.027 80.1501C370.828 80.7243 370.86 81.3536 371.117 81.9045C371.374 82.4554 371.835 82.8844 372.403 83.1005C372.677 83.2174 372.971 83.2784 373.268 83.28C373.566 83.2816 373.861 83.2238 374.136 83.11C374.41 82.9961 374.66 82.8285 374.869 82.6169C375.078 82.4054 375.243 82.1542 375.354 81.8781C375.555 81.304 375.524 80.674 375.267 80.1227C375.009 79.5713 374.547 79.1425 373.978 78.9277C373.704 78.8099 373.41 78.7482 373.112 78.7461C372.814 78.7441 372.519 78.8017 372.244 78.9157C371.969 79.0297 371.72 79.1976 371.511 79.4096C371.302 79.6217 371.137 79.8735 371.027 80.1501Z" fill="#263238"/>
<path d="M372.166 72.7447C372.346 73.1287 374.439 72.4503 376.813 73.2631C379.187 74.0759 380.531 75.8231 380.883 75.6439C381.056 75.5607 380.954 74.9463 380.378 74.1335C379.592 73.0734 378.496 72.2839 377.242 71.8743C376 71.4456 374.654 71.4276 373.402 71.8231C372.48 72.1367 372.077 72.5719 372.166 72.7447Z" fill="#263238"/>
<path d="M391.885 88.5402C391.684 89.1134 391.715 89.7426 391.972 90.2929C392.23 90.8431 392.692 91.2708 393.261 91.4842C393.534 91.602 393.829 91.6637 394.126 91.6658C394.424 91.6679 394.719 91.6102 394.994 91.4962C395.269 91.3823 395.519 91.2143 395.728 91.0023C395.937 90.7903 396.101 90.5385 396.211 90.2618C396.411 89.6877 396.379 89.0583 396.122 88.5075C395.865 87.9566 395.403 87.5275 394.835 87.3114C394.561 87.1947 394.267 87.134 393.969 87.1328C393.671 87.1316 393.376 87.19 393.101 87.3045C392.826 87.419 392.577 87.5873 392.368 87.7995C392.159 88.0117 391.995 88.2636 391.885 88.5402Z" fill="#263238"/>
<path d="M395.136 81.5699C395.309 81.9539 397.408 81.2819 399.782 82.0883C402.157 82.8947 403.494 84.6483 403.853 84.4755C404.019 84.3859 403.923 83.7715 403.347 82.9651C402.559 81.9034 401.461 81.112 400.205 80.6995C398.964 80.2694 397.617 80.2515 396.365 80.6483C395.469 80.9619 395.046 81.3971 395.136 81.5699Z" fill="#263238"/>
<path d="M380.435 96.9608C380.493 96.8328 379.098 96.0776 376.806 94.964C376.224 94.6952 375.686 94.3816 375.725 93.9272C375.763 93.4728 376.205 92.8712 376.736 92.2696L380.096 88.2504C384.813 82.4904 388.448 77.7096 388.211 77.5176C387.974 77.3256 383.968 81.8312 379.251 87.572C378.106 88.9928 377.005 90.3432 375.962 91.6424C375.501 92.2824 374.842 92.9224 374.842 93.9208C374.858 94.1639 374.93 94.4001 375.051 94.6118C375.171 94.8234 375.338 95.0051 375.539 95.1432C375.847 95.3468 376.177 95.5123 376.525 95.636C378.88 96.5768 380.378 97.0952 380.435 96.9608Z" fill="#263238"/>
<path d="M386.88 100.967C386.496 100.82 385.6 103.399 382.797 104.481C379.994 105.562 377.312 104.359 377.171 104.711C377.082 104.858 377.619 105.415 378.765 105.844C380.271 106.372 381.915 106.357 383.411 105.799C384.845 105.258 386.012 104.182 386.669 102.797C387.13 101.761 387.059 101.012 386.88 100.967Z" fill="#263238"/>
<path d="M398.521 71.969C398.521 72.6922 401.017 73.1914 403.693 74.465C406.368 75.7386 408.371 77.2682 408.934 76.8138C409.19 76.5898 409.005 75.8474 408.294 74.8938C407.341 73.715 406.131 72.7695 404.757 72.1295C403.383 71.4895 401.88 71.172 400.365 71.201C399.213 71.2906 398.528 71.6298 398.521 71.969Z" fill="#263238"/>
<path d="M375.821 65.1734C376.057 65.8582 377.882 65.8134 379.859 66.4534C381.837 67.0934 383.379 68.047 383.949 67.6118C384.211 67.3942 384.134 66.767 383.578 66.0054C382.804 65.0626 381.769 64.3703 380.603 64.016C379.436 63.6617 378.191 63.6613 377.024 64.015C376.141 64.367 375.725 64.847 375.821 65.1734Z" fill="#263238"/>
<path d="M417.446 98.8828C417.754 98.8828 429.139 99.3244 425.235 109.763C421.331 120.201 411.622 114.147 411.718 113.84C411.814 113.532 417.446 98.8828 417.446 98.8828Z" fill="#FFBF9D"/>
<path d="M416.397 111.092C416.454 111.092 416.531 111.29 416.787 111.546C417.149 111.895 417.634 112.088 418.138 112.084C419.418 112.084 420.979 110.682 421.734 108.813C422.098 107.926 422.258 106.968 422.202 106.01C422.229 105.645 422.165 105.278 422.016 104.943C421.868 104.608 421.639 104.315 421.35 104.09C421.161 103.95 420.927 103.883 420.693 103.901C420.458 103.919 420.237 104.02 420.07 104.186C419.821 104.429 419.808 104.66 419.75 104.66C419.693 104.66 419.59 104.397 419.834 104.02C419.986 103.786 420.211 103.608 420.474 103.514C420.843 103.405 421.24 103.444 421.581 103.623C421.975 103.871 422.299 104.216 422.523 104.625C422.747 105.034 422.863 105.493 422.861 105.959C422.964 107.032 422.806 108.115 422.4 109.114C421.542 111.194 419.731 112.768 418.054 112.64C417.743 112.615 417.44 112.522 417.169 112.366C416.898 112.209 416.665 111.995 416.486 111.738C416.32 111.36 416.352 111.098 416.397 111.092Z" fill="#FF9A6C"/>
<path d="M384.41 50.5159C383.078 48.9415 390.24 45.3959 395.11 45.1271C402.47 44.6919 412.717 46.6119 417.862 50.4711C424.07 55.1111 428.518 60.7943 429.581 68.4679C430.643 76.1415 429.126 84.0262 426.15 91.1814C425.242 93.3638 424.128 95.5718 422.234 96.9862C419.898 98.7334 416.544 99.111 415.443 102.343C415.261 102.933 414.964 103.482 414.568 103.956C414.173 104.431 413.687 104.822 413.139 105.108C410.451 106.388 408.851 103.604 408.512 101.268C407.789 96.3014 409.402 91.3286 410.995 86.5478C412.128 83.1686 413.299 79.719 415.475 76.8838C416.653 75.3414 418.099 74.0166 419.194 72.4038C420.288 70.791 420.998 68.7751 420.474 66.9127C420.34 66.502 420.166 66.1054 419.955 65.7286C418.988 63.9024 417.552 62.3662 415.796 61.2776C414.039 60.1889 412.024 59.587 409.958 59.5334C403.283 59.3606 392.038 58.6119 390.214 55.6167C387.546 51.3031 387.36 49.0886 387.36 49.0886L384.41 50.5159Z" fill="#263238"/>
<path d="M419.2 44.0857C419.872 44.4249 435.597 54.1401 435.494 68.3097C435.392 82.4793 432.8 85.9481 432.8 85.9481C433.327 86.5977 433.759 87.3198 434.08 88.0921C434.502 89.1673 432.09 92.8153 430.022 91.5993C415.904 78.4985 396.448 70.9721 374.253 64.0793L357.51 58.0825C352.608 57.0137 351.386 55.1897 353.779 54.6969C355.616 54.3129 370.822 53.5449 370.822 53.5449L374.106 52.5337L384.346 45.2953C384.346 45.2953 383.949 43.6569 386.029 43.1257C388.109 42.5945 405.978 37.3657 419.2 44.0857Z" fill="#353CF7"/>
<path d="M374.093 52.5586C374.093 52.5586 374.317 52.6482 374.733 52.789L376.653 53.3906C378.304 53.8834 380.653 54.7154 383.546 55.7778C391.03 58.6585 398.249 62.1876 405.12 66.325C411.987 70.4797 418.611 75.0225 424.96 79.9314C427.418 81.7938 429.37 83.3426 430.72 84.4114L432.288 85.6338C432.646 85.909 432.845 86.0434 432.845 86.0434C432.845 86.0434 432.672 85.877 432.32 85.5826L430.79 84.3026C429.453 83.2146 427.514 81.6402 425.075 79.7586C418.748 74.7919 412.122 70.218 405.235 66.0626C398.344 61.9098 391.085 58.3986 383.552 55.573C380.451 54.4105 377.294 53.4044 374.093 52.5586Z" fill="#263238"/>
<g opacity="0.3">
<path d="M432.217 56.9633C432.217 56.9633 414.861 47.6705 405.273 48.7969L406.4 48.6433L397.44 49.3857C395.923 49.5137 394.189 49.5585 393.152 48.4513C393.152 48.4513 398.585 46.1473 407.168 46.1921C415.75 46.2369 428.345 49.2833 432.217 56.9633Z" fill="black"/>
</g>
<path d="M432.448 57.118C432.063 56.5386 431.635 55.9889 431.168 55.4732C429.918 54.0457 428.504 52.7698 426.957 51.6716C424.666 50.0303 422.145 48.7363 419.475 47.8316C416.222 46.6336 412.749 46.1511 409.293 46.4172C407.518 46.596 405.757 46.8867 404.019 47.2876C402.342 47.6652 400.71 47.9276 399.168 48.3756C397.754 48.8448 396.302 49.1916 394.829 49.4124C393.54 49.5399 392.238 49.3668 391.027 48.9068C386.49 47.4156 384.038 45.5276 384.346 45.3164C384.362 45.5003 384.447 45.6714 384.582 45.7964C384.951 46.1566 385.364 46.4685 385.811 46.7244C387.44 47.6994 389.17 48.4955 390.97 49.0988C392.208 49.5774 393.539 49.7657 394.861 49.6492C396.35 49.441 397.819 49.1048 399.251 48.6444C400.762 48.2284 402.413 47.9468 404.09 47.5692C405.817 47.1847 407.565 46.9026 409.325 46.7244C412.74 46.4674 416.171 46.9363 419.392 48.1004C422.041 48.9867 424.55 50.2475 426.842 51.8444C428.388 52.9204 429.811 54.163 431.085 55.55C431.539 56.0428 431.878 56.4396 432.096 56.7148C432.314 56.99 432.448 57.118 432.448 57.118Z" fill="#263238"/>
<g opacity="0.3">
<path d="M435.29 74.1687C432 73.0103 429.798 71.3015 426.771 69.4583C423.571 67.4999 420.301 65.7079 417.171 63.5959C414.797 61.9959 411.923 60.3063 410.867 57.8359C410.517 58.4353 410.327 59.115 410.317 59.8092C410.307 60.5033 410.477 61.1883 410.81 61.7975C411.482 63.0775 414.33 65.3623 415.546 66.1879C422.464 70.8919 427.27 74.1047 435.002 77.3751C435.166 76.3159 435.26 75.2469 435.283 74.1751" fill="black"/>
</g>
<path d="M435.456 66.7405C437.235 68.3597 438.304 69.4093 437.754 71.2205C437.299 72.7181 436.378 74.4205 434.829 74.1837C434.371 74.0773 433.937 73.8863 433.549 73.6205L412.352 61.2109C411.585 60.8748 410.963 60.2756 410.599 59.5213C410.176 58.3181 411.238 56.9997 412.461 56.6669C413.683 56.3341 414.989 56.6669 416.205 57.0893C423.104 59.3229 429.395 62.7533 435.456 66.7341" fill="#353CF7"/>
<path d="M410.829 59.9824C410.634 59.6124 410.541 59.1971 410.56 58.7792C410.608 58.2153 410.813 57.6761 411.152 57.2234C411.492 56.7707 411.952 56.4227 412.48 56.2192C413.837 55.7584 415.635 56.0656 417.402 56.7824C419.168 57.4992 421.159 58.312 423.162 59.24C426.641 60.7832 429.976 62.6338 433.127 64.7696C434.33 65.5952 435.258 66.3248 435.904 66.8304L436.634 67.4256C436.716 67.499 436.806 67.5634 436.902 67.6176C436.902 67.6176 436.832 67.528 436.672 67.3808L435.975 66.7408C435.335 66.2096 434.445 65.4608 433.248 64.5968C430.118 62.4007 426.781 60.5165 423.283 58.9712C421.248 58.0368 419.283 57.2304 417.479 56.52C415.674 55.8096 413.824 55.5024 412.359 56.0208C411.803 56.2424 411.323 56.619 410.976 57.1059C410.629 57.5927 410.429 58.1691 410.4 58.7664C410.392 59.0871 410.46 59.4052 410.599 59.6944C410.658 59.8031 410.736 59.9006 410.829 59.9824Z" fill="#263238"/>
<path d="M381.133 47.5938L395.539 52.2081L392.947 55.8242L377.504 50.1537L381.133 47.5938Z" fill="white"/>
<path d="M398.413 67.7214C398.445 67.6446 392.384 64.5214 384.864 60.7966C377.344 57.0718 371.2 54.0574 371.2 54.1342C371.2 54.211 377.229 57.3342 384.749 61.059C392.269 64.7838 398.374 67.7918 398.413 67.7214Z" fill="#263238"/>
<path d="M402.042 145.364L402.234 135.905L369.862 147.931C369.862 147.931 363.878 128.494 363.878 127.579L356.704 132.059L344.781 126.939L332.858 121.051L308.742 163.291L283.443 237.876L343.04 277.633L387.238 230.273L414.118 189.313L428.89 163.38L402.042 145.364Z" fill="#353CF7"/>
<path d="M366.982 147.79C366.944 147.476 366.929 147.159 366.938 146.843C366.938 146.203 366.938 145.294 366.899 144.193L367.046 144.283C363.489 146.02 360.205 148.269 357.299 150.958L357.043 151.201V150.849C357.043 150.427 356.992 149.979 356.966 149.525C356.704 144.885 356.486 140.686 356.326 137.64C356.262 136.155 356.211 134.939 356.173 134.037C356.173 133.644 356.173 133.318 356.173 133.057C356.131 133.049 356.093 133.026 356.067 132.992C356.041 132.957 356.029 132.914 356.033 132.872C356.037 132.829 356.057 132.789 356.088 132.76C356.12 132.731 356.162 132.715 356.205 132.715C356.248 132.715 356.289 132.731 356.321 132.76C356.353 132.789 356.373 132.829 356.377 132.872C356.381 132.914 356.369 132.957 356.343 132.992C356.317 133.026 356.279 133.049 356.237 133.057C356.237 133.313 356.288 133.64 356.326 134.03C356.39 134.933 356.474 136.149 356.576 137.627C356.781 140.667 357.03 144.865 357.293 149.505C357.293 149.96 357.344 150.408 357.363 150.83L357.088 150.715C360.017 148.007 363.351 145.775 366.97 144.097L367.123 144.033V144.193C367.123 145.294 367.078 146.184 367.066 146.843C367.061 147.16 367.033 147.477 366.982 147.79Z" fill="#263238"/>
<path d="M399.059 145.82C398.944 145.901 398.819 145.967 398.688 146.019L397.606 146.537L393.6 148.374L380.314 154.313L374.003 157.104L373.734 157.219L373.786 156.931C374.307 153.93 374.551 150.888 374.515 147.843L374.662 147.932L371.674 149.385L370.874 149.756C370.694 149.84 370.598 149.878 370.592 149.865C370.67 149.801 370.756 149.748 370.848 149.705L371.622 149.283L374.573 147.747L374.714 147.67V147.843C374.804 150.913 374.589 153.985 374.074 157.014L373.856 156.841L380.16 154.038L393.485 148.182L397.542 146.441L398.65 145.987C398.779 145.915 398.916 145.859 399.059 145.82Z" fill="#263238"/>
<path d="M342.464 98.4844H98.6881C93.5381 98.4844 89.3633 102.659 89.3633 107.809V276.603C89.3633 281.753 93.5381 285.928 98.6881 285.928H342.464C347.614 285.928 351.789 281.753 351.789 276.603V107.809C351.789 102.659 347.614 98.4844 342.464 98.4844Z" fill="#455A64"/>
<path d="M79.104 273.82H363.424V278.832C363.424 281.853 362.224 284.75 360.087 286.887C357.951 289.023 355.053 290.224 352.032 290.224H90.496C87.4747 290.224 84.5771 289.023 82.4406 286.887C80.3042 284.75 79.104 281.853 79.104 278.832V273.82Z" fill="#455A64"/>
<path d="M344.013 105.934H96.4097V264.225H344.013V105.934Z" fill="#263238"/>
<path d="M194.707 272.066L198.234 278.127H247.878L251.155 272.066H194.707Z" fill="#263238"/>
<path d="M337.325 111.293H103.597C102.441 111.293 101.504 112.23 101.504 113.386V261.623C101.504 262.778 102.441 263.715 103.597 263.715H337.325C338.481 263.715 339.418 262.778 339.418 261.623V113.386C339.418 112.23 338.481 111.293 337.325 111.293Z" fill="#EBEBEB"/>
<path d="M339.168 263.938H101.254L101.504 122.684H339.168V263.938Z" fill="#FAFAFA"/>
<path d="M121.498 117.179C121.479 117.562 121.348 117.931 121.122 118.24C120.896 118.549 120.584 118.785 120.225 118.919C119.866 119.052 119.475 119.078 119.102 118.992C118.728 118.906 118.388 118.712 118.124 118.435C117.86 118.157 117.683 117.809 117.614 117.432C117.546 117.054 117.59 116.666 117.741 116.313C117.892 115.961 118.142 115.661 118.462 115.45C118.782 115.238 119.156 115.125 119.539 115.125C120.071 115.138 120.576 115.362 120.943 115.747C121.31 116.132 121.51 116.647 121.498 117.179Z" fill="#263238"/>
<path d="M109.619 117.179C109.6 117.562 109.47 117.931 109.244 118.24C109.017 118.549 108.705 118.785 108.346 118.919C107.987 119.052 107.597 119.078 107.223 118.992C106.85 118.906 106.51 118.712 106.246 118.435C105.981 118.157 105.804 117.809 105.736 117.432C105.668 117.054 105.712 116.666 105.863 116.313C106.013 115.961 106.264 115.661 106.583 115.45C106.903 115.238 107.278 115.125 107.661 115.125C108.193 115.138 108.698 115.362 109.065 115.747C109.432 116.132 109.631 116.647 109.619 117.179Z" fill="#263238"/>
<path d="M115.725 117.179C115.706 117.562 115.575 117.931 115.349 118.24C115.123 118.549 114.811 118.785 114.452 118.919C114.093 119.052 113.702 119.078 113.329 118.992C112.955 118.906 112.616 118.712 112.351 118.435C112.087 118.157 111.91 117.809 111.841 117.432C111.773 117.054 111.817 116.666 111.968 116.313C112.119 115.961 112.369 115.661 112.689 115.45C113.009 115.238 113.383 115.125 113.766 115.125C114.298 115.138 114.803 115.362 115.17 115.747C115.537 116.132 115.737 116.647 115.725 117.179Z" fill="#263238"/>
<path d="M349.536 272.065C349.536 272.167 291.296 272.244 219.456 272.244C147.616 272.244 89.3633 272.167 89.3633 272.065C89.3633 271.962 147.603 271.879 219.456 271.879C291.309 271.879 349.536 271.962 349.536 272.065Z" fill="#263238"/>
<path d="M194.906 149.762C198.774 147.428 202.936 145.62 207.283 144.386L209.843 132.13L230.541 131.766L233.523 143.926C237.909 145.009 242.132 146.67 246.08 148.866L256.544 142.012L271.437 156.393L264.96 167.1C267.296 170.97 269.104 175.135 270.336 179.484L282.586 182.044L282.95 202.742L270.79 205.724C269.705 210.098 268.041 214.308 265.843 218.242L272.704 228.706L258.323 243.599L247.629 237.116C243.759 239.452 239.594 241.26 235.245 242.492L232.685 254.748L211.981 255.106L209.005 242.946C204.63 241.875 200.418 240.224 196.48 238.038L186.016 244.898L171.123 230.518L177.606 219.823C175.268 215.954 173.458 211.789 172.224 207.439L159.974 204.879L159.61 184.182L171.77 181.199C172.852 176.813 174.513 172.59 176.71 168.642L169.856 158.178L184.237 143.286L194.906 149.762ZM205.939 177.34C202.889 180.5 200.844 184.494 200.063 188.816C199.282 193.138 199.8 197.595 201.552 201.622C203.304 205.65 206.21 209.068 209.905 211.443C213.599 213.819 217.914 215.046 222.306 214.969C226.697 214.892 230.967 213.515 234.576 211.011C238.185 208.507 240.97 204.99 242.58 200.903C244.189 196.817 244.551 192.344 243.619 188.052C242.687 183.76 240.503 179.841 237.344 176.79C235.245 174.765 232.767 173.173 230.053 172.106C227.338 171.039 224.44 170.516 221.524 170.569C218.607 170.622 215.73 171.249 213.056 172.414C210.382 173.579 207.964 175.259 205.939 177.359V177.34Z" fill="#E0E0E0"/>
<path d="M277.6 157.68C277.884 156.149 278.368 154.662 279.04 153.258L276.48 149.802L281.113 144.375L284.953 146.384C286.234 145.502 287.627 144.794 289.094 144.279L289.734 140.01L296.845 139.453L298.125 143.568C299.657 143.851 301.144 144.338 302.547 145.015L306.003 142.455L311.43 147.095L309.421 150.935C310.307 152.217 311.017 153.611 311.533 155.082L315.795 155.722L316.352 162.839L312.237 164.119C311.956 165.651 311.469 167.139 310.79 168.541L313.35 172.004L308.717 177.424L304.877 175.415C303.595 176.301 302.2 177.011 300.729 177.527L300.089 181.796L292.979 182.352L291.699 178.231C290.167 177.95 288.68 177.466 287.277 176.791L283.814 179.351L278.4 174.66L280.409 170.82C279.525 169.537 278.815 168.142 278.297 166.672L274.035 166.032L273.478 158.916L277.593 157.636L277.6 157.68ZM287.245 159.837C287.093 161.438 287.447 163.045 288.257 164.434C289.068 165.823 290.294 166.922 291.762 167.577C293.23 168.232 294.867 168.409 296.442 168.084C298.016 167.76 299.449 166.949 300.538 165.767C301.628 164.584 302.319 163.09 302.514 161.494C302.709 159.898 302.398 158.281 301.625 156.871C300.852 155.462 299.657 154.33 298.207 153.636C296.756 152.941 295.125 152.72 293.542 153.002C291.89 153.297 290.379 154.124 289.242 155.359C288.105 156.593 287.403 158.166 287.245 159.837Z" fill="#E0E0E0"/>
<path d="M121.741 229.12C121.793 227.281 122.092 225.458 122.63 223.699L119.002 220.16L123.443 213.005L128.256 214.669C129.6 213.408 131.107 212.331 132.736 211.469L132.698 206.381L140.902 204.461L143.123 209.037C144.962 209.088 146.785 209.387 148.544 209.927L152.122 206.298L159.277 210.739L157.613 215.552C158.874 216.896 159.95 218.403 160.813 220.032L165.901 219.994L167.821 228.192L163.238 230.4C163.181 232.239 162.88 234.062 162.342 235.821L165.971 239.392L161.53 246.554L156.717 244.89C155.374 246.153 153.867 247.229 152.237 248.09L152.275 253.178L144.077 255.098L141.85 250.522C140.016 250.458 138.199 250.148 136.448 249.6L132.877 253.229L125.715 248.787L127.379 243.975C126.118 242.63 125.042 241.124 124.179 239.495L119.059 239.533L117.139 231.335L121.715 229.107L121.741 229.12ZM133.6 231.424C134.011 233.162 134.928 234.74 136.235 235.957C137.542 237.175 139.181 237.977 140.944 238.264C142.707 238.551 144.516 238.308 146.141 237.568C147.766 236.827 149.136 235.621 150.077 234.103C151.017 232.584 151.487 230.821 151.426 229.036C151.365 227.251 150.776 225.524 149.734 224.073C148.692 222.622 147.244 221.512 145.572 220.884C143.899 220.256 142.079 220.138 140.339 220.544C139.179 220.814 138.084 221.311 137.117 222.006C136.15 222.701 135.33 223.58 134.704 224.593C134.077 225.606 133.657 226.732 133.468 227.908C133.279 229.084 133.323 230.285 133.6 231.443V231.424Z" fill="#E0E0E0"/>
<path d="M136.467 160.758C136.676 159.602 137.042 158.48 137.555 157.423L135.635 154.812L139.13 150.723L142.01 152.239C142.976 151.573 144.026 151.037 145.133 150.646L145.606 147.446L150.97 147.023L151.93 150.127C153.084 150.342 154.205 150.708 155.264 151.215L157.875 149.295L161.958 152.79L160.448 155.67C161.115 156.635 161.649 157.685 162.035 158.793L165.235 159.26L165.658 164.623L162.56 165.558C162.348 166.712 161.984 167.833 161.478 168.892L163.398 171.497L159.904 175.587L157.024 174.07C156.059 174.739 155.009 175.275 153.901 175.663L153.434 178.863L148.07 179.279L147.104 176.175C145.948 175.965 144.827 175.599 143.77 175.087L141.165 177.007L137.075 173.513L138.586 170.633C137.918 169.668 137.385 168.618 136.998 167.51L133.798 167.036L133.382 161.673L136.486 160.713L136.467 160.758ZM143.731 163.363C143.822 164.497 144.246 165.58 144.952 166.473C145.657 167.367 146.611 168.031 147.694 168.383C148.776 168.734 149.939 168.757 151.034 168.449C152.13 168.14 153.11 167.514 153.85 166.649C154.59 165.784 155.057 164.719 155.192 163.589C155.327 162.459 155.125 161.314 154.61 160.299C154.095 159.284 153.291 158.444 152.299 157.885C151.307 157.327 150.172 157.075 149.037 157.161C148.281 157.218 147.543 157.425 146.867 157.768C146.191 158.111 145.589 158.584 145.096 159.16C144.603 159.736 144.229 160.404 143.995 161.125C143.76 161.846 143.671 162.607 143.731 163.363Z" fill="#EBEBEB"/>
<path d="M277.869 218.517C278.054 217.525 278.368 216.561 278.803 215.65L277.133 213.41L280.134 209.896L282.611 211.176C283.44 210.602 284.342 210.141 285.293 209.807L285.696 207.042L290.304 206.684L291.13 209.352C292.123 209.535 293.087 209.849 293.997 210.287L296.237 208.616L299.75 211.618L298.47 214.088C299.045 214.919 299.505 215.823 299.84 216.776L302.605 217.18L302.963 221.788L300.294 222.613C300.112 223.606 299.798 224.571 299.36 225.48L301.03 227.72L298.029 231.228L295.558 229.948C294.726 230.52 293.822 230.98 292.87 231.317L292.467 234.076L287.859 234.434L287.034 231.772C286.041 231.586 285.077 231.272 284.166 230.837L281.926 232.508L278.4 229.506L279.68 227.036C279.106 226.207 278.645 225.305 278.31 224.354L275.552 223.951L275.187 219.343L277.856 218.517H277.869ZM284.109 220.751C284.185 221.73 284.549 222.665 285.157 223.437C285.765 224.209 286.588 224.783 287.522 225.086C288.457 225.39 289.46 225.409 290.405 225.141C291.35 224.874 292.195 224.331 292.832 223.583C293.468 222.835 293.868 221.915 293.981 220.939C294.094 219.963 293.915 218.976 293.466 218.102C293.017 217.228 292.318 216.507 291.459 216.031C290.6 215.555 289.619 215.344 288.64 215.426C287.334 215.534 286.124 216.155 285.275 217.153C284.425 218.151 284.006 219.444 284.109 220.751Z" fill="#EBEBEB"/>
<path d="M221.267 225.46H189.44C187.569 225.455 185.733 224.959 184.113 224.022C182.494 223.085 181.149 221.74 180.213 220.12C179.277 218.5 178.782 216.663 178.779 214.793C178.775 212.922 179.262 211.083 180.192 209.459L196.115 181.882L212.032 154.304C212.971 152.682 214.32 151.335 215.944 150.398C217.567 149.462 219.409 148.969 221.283 148.969C223.158 148.969 224.999 149.462 226.623 150.398C228.247 151.335 229.596 152.682 230.535 154.304L246.458 181.882L262.381 209.459C263.311 211.083 263.798 212.923 263.794 214.794C263.79 216.665 263.295 218.503 262.358 220.123C261.421 221.743 260.076 223.088 258.455 224.025C256.835 224.961 254.998 225.456 253.127 225.46H221.267Z" fill="#353CF7"/>
<path d="M255.546 212.623C255.546 212.623 255.629 212.783 255.789 213.116C256.062 213.783 256.166 214.507 256.093 215.223C256.019 215.94 255.77 216.628 255.366 217.225C255.05 217.696 254.643 218.101 254.17 218.415C253.619 218.766 252.99 218.972 252.339 219.017C246.912 219.074 239.078 219.062 229.389 219.087L195.354 219.126H190.49C189.622 219.116 188.779 218.838 188.076 218.329C187.373 217.82 186.846 217.105 186.566 216.284C186.27 215.463 186.214 214.575 186.406 213.724C186.458 213.513 186.528 213.302 186.598 213.084C186.669 212.866 186.784 212.681 186.88 212.489L187.52 211.369C188.339 209.865 189.171 208.354 190.003 206.825L200.32 187.887L210.701 168.962C212.369 165.903 214.012 162.902 215.629 159.958C216.038 159.228 216.416 158.492 216.851 157.769C217.284 157.03 217.901 156.417 218.643 155.99C219.37 155.573 220.186 155.336 221.023 155.298C221.86 155.26 222.694 155.423 223.456 155.772C224.212 156.114 224.871 156.637 225.376 157.295C225.813 157.959 226.208 158.65 226.56 159.362C227.309 160.732 228.051 162.082 228.774 163.414C230.234 166.076 231.644 168.66 233.005 171.164C235.738 176.162 238.278 180.822 240.595 185.071C245.229 193.577 248.973 200.463 251.565 205.231L254.534 210.716C254.867 211.356 255.123 211.817 255.296 212.15C255.469 212.482 255.552 212.642 255.552 212.642C255.552 212.642 255.45 212.482 255.27 212.162L254.477 210.748L251.45 205.289C248.838 200.534 245.05 193.673 240.39 185.186L232.768 171.292L228.518 163.554C227.789 162.223 227.053 160.873 226.298 159.503C225.945 158.812 225.554 158.141 225.126 157.494C224.654 156.879 224.039 156.389 223.334 156.066C222.617 155.737 221.832 155.584 221.044 155.62C220.256 155.655 219.488 155.879 218.803 156.271C218.11 156.677 217.532 157.254 217.126 157.948C216.704 158.646 216.32 159.394 215.917 160.124L210.989 169.129C207.648 175.247 204.179 181.577 200.634 188.066L190.272 206.991C189.434 208.521 188.608 210.038 187.782 211.535C187.333 212.241 186.977 213.003 186.726 213.801C186.544 214.598 186.595 215.432 186.874 216.201C187.127 216.963 187.612 217.627 188.262 218.099C188.912 218.57 189.693 218.827 190.496 218.831H195.36L229.395 218.863L252.339 218.895C252.968 218.859 253.577 218.665 254.112 218.332C254.578 218.029 254.981 217.638 255.296 217.18C255.789 216.455 256.052 215.599 256.051 214.722C256.044 213.993 255.871 213.276 255.546 212.623Z" fill="#263238"/>
<path d="M216.109 206.721C216.109 203.899 218.362 201.793 221.568 201.793C224.774 201.793 226.976 203.899 226.976 206.721C226.976 209.544 224.774 211.745 221.568 211.745C218.362 211.745 216.109 209.505 216.109 206.721ZM216.16 177.812H226.976L225.158 199.112H217.933L216.16 177.812Z" fill="white"/>
<path d="M222.79 151.121C222.136 150.9 221.457 150.758 220.768 150.699C219.095 150.663 217.461 151.21 216.147 152.248C214.865 153.317 213.832 154.654 213.12 156.164C212.538 157.316 212.262 158.084 212.211 158.052C212.229 157.863 212.274 157.678 212.346 157.502C212.506 157.011 212.694 156.531 212.909 156.062C213.585 154.476 214.632 153.076 215.962 151.979C217.331 150.892 219.056 150.354 220.8 150.468C221.323 150.507 221.835 150.633 222.317 150.84C222.63 150.987 222.803 151.102 222.79 151.121Z" fill="white"/>
<path d="M209.478 162.816C209.61 162.264 209.847 161.742 210.176 161.28C210.643 160.493 211.085 159.891 211.168 159.936C211.033 160.48 210.794 160.993 210.464 161.446C210.227 161.962 209.892 162.427 209.478 162.816Z" fill="white"/>
<g opacity="0.3">
<path d="M237.242 165.934L187.648 196.487L181.21 207.649L240.743 171.994L237.242 165.934Z" fill="white"/>
</g>
<g opacity="0.3">
<path d="M245.05 179.473L179.315 218.244C179.579 219.26 180.066 220.205 180.742 221.009L246.208 181.482L245.05 179.473Z" fill="white"/>
</g>
<path d="M407.501 251.779C405.002 249.025 401.763 247.049 398.171 246.086C394.579 245.124 390.786 245.216 387.245 246.351L381.12 239.631L380.269 238.678L331.801 185.5C333.164 182.344 333.661 178.882 333.242 175.469C332.823 172.057 331.503 168.818 329.418 166.085C327.332 163.352 324.557 161.224 321.377 159.918C318.196 158.613 314.726 158.178 311.321 158.659L308.953 159.599L317.19 165.123L316.749 174.115L310.086 180.163L301.094 179.721L295.219 173.244L292.793 174.198C292.096 179.619 295.731 186.454 299.693 190.838C302.187 193.588 305.42 195.563 309.006 196.526C312.592 197.49 316.38 197.401 319.917 196.271L369.197 250.339L370.707 252.022L375.379 257.142C373.918 260.548 373.466 264.303 374.077 267.959C374.689 271.614 376.338 275.017 378.829 277.763C382.771 282.115 388.006 285.02 393.453 284.873L395.885 283.926L390.003 277.443L390.445 268.483L397.107 262.435L406.067 262.87L409.51 270.3L411.942 269.347C412.692 266.278 412.68 263.073 411.905 260.01C411.131 256.948 409.619 254.122 407.501 251.779Z" fill="#E0E0E0"/>
<g opacity="0.3">
<path d="M407.501 251.779C405.002 249.025 401.763 247.049 398.171 246.086C394.579 245.124 390.786 245.216 387.245 246.351L381.12 239.631L380.269 238.678L331.801 185.5C333.164 182.344 333.661 178.882 333.242 175.469C332.823 172.057 331.503 168.818 329.418 166.085C327.332 163.352 324.557 161.224 321.377 159.918C318.196 158.613 314.726 158.178 311.321 158.659L308.953 159.599L317.19 165.123L316.749 174.115L310.086 180.163L301.094 179.721L295.219 173.244L292.793 174.198C292.096 179.619 295.731 186.454 299.693 190.838C302.187 193.588 305.42 195.563 309.006 196.526C312.592 197.49 316.38 197.401 319.917 196.271L369.197 250.339L370.707 252.022L375.379 257.142C373.918 260.548 373.466 264.303 374.077 267.959C374.689 271.614 376.338 275.017 378.829 277.763C382.771 282.115 388.006 285.02 393.453 284.873L395.885 283.926L390.003 277.443L390.445 268.483L397.107 262.435L406.067 262.87L409.51 270.3L411.942 269.347C412.692 266.278 412.68 263.073 411.905 260.01C411.131 256.948 409.619 254.122 407.501 251.779Z" fill="black"/>
</g>
<path d="M405.069 252.726C402.571 249.973 399.333 247.997 395.742 247.036C392.151 246.075 388.359 246.168 384.819 247.306L378.688 240.579L377.837 239.626L329.37 186.448C330.733 183.292 331.23 179.83 330.811 176.418C330.393 173.006 329.073 169.767 326.987 167.034C324.901 164.301 322.126 162.173 318.945 160.869C315.764 159.565 312.294 159.131 308.89 159.613L314.765 166.09L314.33 175.05L307.655 181.123L298.695 180.688L292.819 174.211C292.007 177.55 292.099 181.045 293.085 184.337C294.071 187.629 295.916 190.599 298.431 192.941C300.945 195.283 304.038 196.914 307.391 197.665C310.745 198.415 314.237 198.259 317.511 197.213L366.791 251.28L368.307 252.963L372.979 258.083C371.623 261.238 371.13 264.697 371.552 268.105C371.973 271.514 373.294 274.748 375.379 277.477C377.464 280.206 380.237 282.331 383.415 283.635C386.592 284.938 390.059 285.372 393.459 284.893L387.578 278.403L388.013 269.443L394.682 263.395L403.642 263.837L409.517 270.314C410.272 267.242 410.261 264.032 409.485 260.966C408.71 257.899 407.193 255.07 405.069 252.726Z" fill="#E0E0E0"/>
<path d="M405.069 252.727C405.069 252.727 405.35 253.035 405.881 253.655C406.638 254.6 407.309 255.611 407.885 256.676C410.109 260.858 410.724 265.71 409.613 270.314V270.443L409.523 270.347L403.641 263.876L403.693 263.908L394.733 263.479H394.797L388.141 269.534V269.463C388.013 272.254 387.865 275.294 387.712 278.455V278.372L393.542 284.804L393.696 284.971L393.472 285.003C390.227 285.474 386.915 285.116 383.845 283.962C380.775 282.809 378.048 280.896 375.917 278.404C373.598 275.711 372.069 272.428 371.501 268.919C370.897 265.241 371.354 261.467 372.819 258.039V258.193L317.337 197.335L317.51 197.38C314.004 198.488 310.258 198.594 306.694 197.687C301.73 196.403 297.471 193.218 294.836 188.819C292.202 184.421 291.404 179.162 292.614 174.18L292.691 173.873L292.902 174.103L298.777 180.58L298.662 180.529L307.654 180.964L307.533 181.009L314.24 174.955L314.182 175.07C314.329 172.036 314.477 169.047 314.624 166.078L314.662 166.193L308.787 159.716L308.589 159.492L308.883 159.454C312.422 158.954 316.031 159.435 319.315 160.846C322.6 162.257 325.433 164.542 327.507 167.454C329.491 170.231 330.708 173.483 331.033 176.881C331.336 180.156 330.819 183.455 329.529 186.481V186.327L384.921 247.23H384.845C387.481 246.388 390.267 246.12 393.016 246.443C395.764 246.766 398.412 247.674 400.781 249.105C401.984 249.84 403.108 250.698 404.134 251.665C404.774 252.35 405.12 252.702 405.12 252.702L404.109 251.691C403.074 250.728 401.946 249.871 400.742 249.131C398.379 247.722 395.744 246.832 393.01 246.521C390.277 246.21 387.509 246.484 384.889 247.326H384.845V247.287L329.35 186.487L329.286 186.417L329.325 186.334C330.594 183.343 331.1 180.084 330.797 176.849C330.477 173.502 329.275 170.3 327.315 167.569C325.273 164.705 322.484 162.456 319.252 161.069C316.019 159.682 312.468 159.21 308.985 159.703L309.081 159.441L314.88 165.982L314.925 166.027V166.097C314.784 169.058 314.639 172.045 314.489 175.057V175.127L314.438 175.172L307.776 181.22L307.725 181.265H307.654L298.694 180.823H298.624L298.579 180.772L292.697 174.295L292.985 174.225C292.182 177.534 292.273 180.997 293.249 184.259C294.225 187.521 296.051 190.465 298.539 192.789C301.028 195.113 304.09 196.733 307.411 197.484C310.733 198.234 314.194 198.088 317.44 197.06H317.536L317.613 197.137C337.76 219.268 356.653 239.985 373.056 258.02L373.12 258.091L373.081 258.18C371.641 261.551 371.187 265.262 371.769 268.881C372.331 272.251 373.776 275.412 375.957 278.042C378.138 280.672 380.977 282.676 384.185 283.851C387.146 284.921 390.323 285.251 393.44 284.811L393.363 285.009L387.494 278.532L387.462 278.494V278.404C387.616 275.249 387.763 272.209 387.904 269.444V269.399V269.367L394.579 263.332H394.618L403.577 263.78C405.728 266.161 407.705 268.343 409.44 270.27H409.325C410.444 265.694 409.855 260.867 407.667 256.695C407.099 255.63 406.442 254.616 405.702 253.662C405.331 253.054 405.069 252.727 405.069 252.727Z" fill="#263238"/>
<path d="M327.161 189.552C327.117 189.722 327.045 189.883 326.95 190.032C326.726 190.448 326.476 190.85 326.201 191.235C324.387 193.816 321.828 195.783 318.867 196.873C318.424 197.04 317.971 197.177 317.51 197.283C317.345 197.338 317.172 197.366 316.998 197.366C316.998 197.308 317.696 197.116 318.784 196.656C321.639 195.468 324.132 193.552 326.016 191.1C326.739 190.16 327.11 189.526 327.161 189.552Z" fill="#263238"/>
<path d="M381.286 212.646L362.88 204.07L346.426 202.016L352.467 207.136C352.467 207.136 331.194 214.553 330.822 216.224C330.451 217.894 332.499 222.387 336.25 221.555C336.25 221.555 334.144 224.115 335.021 226.937C335.898 229.76 337.837 230.291 341.421 229.632C341.421 229.632 338.989 233.273 340.896 235.129C342.803 236.985 345.773 236.518 345.773 236.518C345.773 236.518 345.811 240.953 348.154 241.337C350.496 241.721 357.024 241.267 359.462 240.518L371.846 236.678L379.872 234.88L381.286 212.646Z" fill="#FFBF9D"/>
<path d="M347.405 218.282C347.475 218.525 345.024 219.446 341.939 220.349C338.854 221.251 336.282 221.776 336.211 221.533C336.141 221.29 338.592 220.362 341.677 219.466C344.762 218.57 347.334 218.038 347.405 218.282Z" fill="#FF9A6C"/>
<path d="M350.534 227.029C350.605 227.272 348.666 228.072 346.195 228.821C343.725 229.569 341.658 229.966 341.581 229.723C341.504 229.48 343.456 228.68 345.926 227.937C348.397 227.195 350.464 226.792 350.534 227.029Z" fill="#FF9A6C"/>
<path d="M353.344 234.306C353.389 234.581 351.622 234.946 349.549 235.471C347.475 235.996 345.856 236.751 345.709 236.488C345.562 236.226 347.085 235.17 349.293 234.568C351.501 233.967 353.312 234.082 353.344 234.306Z" fill="#FF9A6C"/>
<path d="M355.667 206.405C355.738 206.655 353.325 207.531 350.336 208.562C347.347 209.592 344.909 210.379 344.806 210.143C344.704 209.906 347.021 208.728 350.042 207.691C353.062 206.655 355.603 206.162 355.667 206.405Z" fill="#FF9A6C"/>
<path d="M377.818 211.035L417.683 225.474L415.354 252.834L371.462 235.138L377.818 211.035Z" fill="#FFBF9D"/>
<path d="M428.966 163.156C428.966 163.156 434.163 168.526 437.19 178.183C440.218 187.841 454.47 228.782 454.125 241.806C453.747 255.278 444.678 264.891 424.749 259.566C412.858 256.366 398.688 251.246 398.688 251.246L408.762 218.132L416.64 220.161L403.917 196.276L428.966 163.156Z" fill="#353CF7"/>
<path d="M419.84 178.805C419.917 178.863 414.4 186.715 407.527 196.347C400.653 205.979 395.027 213.762 394.95 213.698C394.874 213.634 400.39 205.787 407.264 196.155C414.138 186.523 419.77 178.754 419.84 178.805Z" fill="#263238"/>
<path d="M435.098 224.644C435.098 224.644 434.752 224.478 434.131 224.19C433.248 223.795 432.334 223.472 431.398 223.223C430.214 222.897 428.781 222.583 427.187 222.244L422.016 221.105C418.349 220.286 415.027 219.524 412.634 218.954L409.798 218.263C409.447 218.196 409.102 218.097 408.768 217.969C409.124 217.998 409.477 218.056 409.824 218.142L412.685 218.724C415.098 219.236 418.445 219.959 422.093 220.778L427.258 221.95C428.845 222.308 430.278 222.641 431.462 222.999C432.403 223.272 433.316 223.632 434.189 224.074C434.425 224.195 434.654 224.329 434.874 224.478C434.955 224.523 435.031 224.579 435.098 224.644Z" fill="#263238"/>
<g opacity="0.3">
<path d="M445.287 226.103C445.159 225.317 444.844 224.573 444.367 223.936C443.89 223.299 443.265 222.786 442.547 222.442C441.106 221.76 439.554 221.344 437.965 221.213C430.803 220.228 423.559 219.933 416.333 219.684L416.973 219.972C425.9 221.622 434.638 224.169 443.053 227.575C443.514 227.83 444.056 227.894 444.563 227.754C444.838 227.585 445.054 227.337 445.183 227.042C445.313 226.746 445.349 226.419 445.287 226.103Z" fill="black"/>
</g>
<g opacity="0.3">
<path d="M281.05 99.1493C274.33 98.0037 266.291 99.9557 259.571 98.8101C258.573 98.6437 257.472 98.4837 256.589 98.9957C255.526 99.6037 255.162 100.961 255.11 102.196C255.084 103.89 255.411 105.572 256.073 107.133C256.734 108.693 257.714 110.099 258.95 111.258C261.467 113.559 264.61 115.06 267.981 115.572C270.662 116.026 273.549 115.937 275.936 114.644C280.134 112.365 282.15 103.764 281.05 99.1493Z" fill="black"/>
</g>
<path d="M254.97 111.444C254.97 111.444 250.893 106.663 250.304 104.462C249.914 103.002 250.106 98.9129 250.304 96.3209C250.349 95.4474 250.649 94.6062 251.166 93.9011C251.684 93.196 252.396 92.6578 253.216 92.3529C253.456 92.2337 253.724 92.1821 253.991 92.2035C254.258 92.2249 254.515 92.3186 254.733 92.4745C255.286 91.7237 255.908 91.0252 256.589 90.3881C258.189 88.7497 258.95 87.6425 262.47 88.6601C262.47 88.6601 265.062 85.9273 266.554 86.1321C267.554 86.2801 268.544 86.4939 269.517 86.7721C269.517 86.7721 275.194 86.5289 276.358 88.3337C277.02 89.1484 277.912 89.7441 278.918 90.0425C279.806 90.3558 280.622 90.8441 281.318 91.4784C282.014 92.1127 282.576 92.8801 282.97 93.7353C283.632 95.3059 284.015 96.9801 284.102 98.6825L278.342 98.9129C278.342 98.9129 278.752 112.167 277.299 113.236C275.846 114.305 275.296 113.921 275.296 113.921C275.296 113.921 274.189 117.031 269.869 114.734C269.869 114.734 266.285 115.815 264.749 114.337C263.213 112.858 257.594 98.6568 257.594 98.6568L257.754 105.697C257.754 105.697 260.717 110.26 259.264 111.329C257.811 112.398 254.97 111.444 254.97 111.444Z" fill="#FFBF9D"/>
<path d="M262.163 93.4805C262.3 93.7462 262.409 94.025 262.49 94.3125L263.271 96.6165C263.911 98.5365 264.787 101.276 265.722 104.264C266.656 107.253 267.437 110.024 268.32 111.842C268.66 112.574 269.053 113.28 269.498 113.954C269.811 114.434 270.01 114.677 269.991 114.696C269.971 114.716 269.92 114.652 269.818 114.536C269.668 114.376 269.527 114.207 269.395 114.031C268.904 113.378 268.475 112.679 268.115 111.944C267.162 110.095 266.362 107.349 265.415 104.367C264.467 101.384 263.642 98.6581 263.053 96.6869C262.784 95.7461 262.554 94.9653 262.375 94.3509C262.278 94.0678 262.207 93.7765 262.163 93.4805Z" fill="#FF9A6C"/>
<path d="M269.248 91.8438C269.376 92.1184 269.475 92.4058 269.542 92.7013L270.227 95.0758C270.784 97.079 271.507 99.8566 272.352 102.929C273.197 106.001 273.882 108.791 274.381 110.813C274.618 111.773 274.81 112.58 274.963 113.207C275.049 113.499 275.105 113.799 275.13 114.103C275.009 113.825 274.91 113.539 274.835 113.245C274.656 112.605 274.432 111.825 274.157 110.871C273.594 108.868 272.838 106.09 272.032 103.018C271.226 99.9462 270.502 97.1557 269.997 95.1333C269.766 94.1669 269.568 93.3669 269.421 92.7333C269.335 92.443 269.277 92.1451 269.248 91.8438Z" fill="#FF9A6C"/>
</svg>
