
<svg xmlns="http://www.w3.org/2000/svg" xml:space="preserve" width="32" height="32" version="1.1" style="shape-rendering:geometricPrecision; text-rendering:geometricPrecision; image-rendering:optimizeQuality; fill-rule:evenodd; clip-rule:evenodd"
viewBox="0 0 117.42 117.42"
 xmlns:xlink="http://www.w3.org/1999/xlink"
 xmlns:xodm="http://www.corel.com/coreldraw/odm/2003">

 <g id="Layer_x0020_1">
  <metadata id="CorelCorpID_0Corel-Layer"/>
  <circle cx="58.71" cy="58.71" fill="#353CF7" r="58.71"/>
  <g id="_2606570234000">
   <path  fill="white" d="M66.56 67.3l-0.56 -1.24c-1.11,-1.93 0.29,-4.38 2.54,-4.38 0.33,0 0.66,0.05 0.97,0.16 0.81,0.17 1.66,0.26 2.52,0.26 6.68,0 12.09,-5.41 12.09,-12.09 0,-1.47 -0.26,-2.87 -0.74,-4.17l-0.73 -1.61c-1.6,-2.94 -4.4,-5.15 -7.73,-5.96l-28.99 -5.51c-1.13,-0.22 -2.11,-0.45 -3.27,-0.45 -6.62,0 -11.99,5.37 -11.99,11.99 0,1.34 0.22,2.62 0.62,3.82l13.25 29.21 0.62 1.37c2.04,3.83 6.07,6.44 10.71,6.44 6.69,0 12.12,-5.42 12.12,-12.12 0,-1.5 -0.27,-2.94 -0.77,-4.27l-0.65 -1.44z"/>
   <path  fill="white" d="M79.88 67.81c-3.8,0 -6.87,3.08 -6.87,6.87 0,3.8 3.08,6.87 6.87,6.87 3.8,0 6.87,-3.08 6.87,-6.87 0,-3.8 -3.08,-6.87 -6.87,-6.87z"/>
  </g>
 </g>
</svg>
